<?xml version="1.0" standalone="no"?>
<!DOCTYPE svg PUBLIC "-//W3C//DTD SVG 20010904//EN"
 "http://www.w3.org/TR/2001/REC-SVG-20010904/DTD/svg10.dtd">
<svg version="1.0" xmlns="http://www.w3.org/2000/svg"
 width="598.000000pt" height="598.000000pt" viewBox="0 0 598.000000 598.000000"
 preserveAspectRatio="xMidYMid meet">
<metadata>
Created by potrace 1.14, written by Peter Selinger 2001-2017
</metadata>
<g transform="translate(0.000000,598.000000) scale(0.100000,-0.100000)"
fill="#000000" stroke="none">
<path d="M2517 3673 c-3 -5 -4 -28 -3 -53 1 -33 5 -45 16 -45 15 0 31 68 22
94 -4 12 -28 15 -35 4z"/>
<path d="M2950 3633 c-29 -20 -80 -73 -80 -84 0 -9 -53 -24 -112 -33 -21 -3
-59 -11 -85 -16 -37 -9 -49 -8 -52 1 -9 28 -55 59 -86 59 -69 0 -117 -80 -81
-135 12 -18 17 -55 20 -132 10 -256 90 -459 241 -608 57 -57 169 -135 193
-135 5 0 22 -6 37 -14 35 -18 76 -11 150 26 166 83 291 233 358 429 14 41 29
92 33 114 3 22 9 49 11 60 9 38 12 230 5 264 l-7 34 -189 37 c-118 23 -192 42
-196 51 -25 44 -91 99 -120 99 -9 0 -27 -8 -40 -17z"/>
<path d="M2374 3616 c-6 -15 -1 -22 42 -58 31 -27 49 -8 24 25 -30 38 -59 52
-66 33z"/>
<path d="M2637 3602 c-28 -29 -34 -47 -18 -56 9 -6 81 60 81 74 0 20 -37 9
-63 -18z"/>
<path d="M2325 3480 c-12 -19 6 -30 50 -30 45 0 68 16 44 31 -19 12 -86 11
-94 -1z"/>
<path d="M2397 3365 c-30 -26 -37 -37 -30 -50 8 -14 15 -12 51 17 39 32 56 68
30 68 -7 -1 -30 -16 -51 -35z"/>
</g>
</svg>
